<svg version="1.1" id="Layer_1" xmlns="http://www.w3.org/2000/svg" xmlns:xlink="http://www.w3.org/1999/xlink" x="0px" y="0px"
	 width="100%" viewBox="0 0 332 119" enable-background="new 0 0 332 119" xml:space="preserve">
<path fill="#2C292D" opacity="1.000000" stroke="none" 
	d="
M214.000000,120.000000 
	C142.666687,120.000000 71.833374,120.000000 1.000047,120.000000 
	C1.000032,80.333366 1.000032,40.666733 1.000016,1.000074 
	C111.666603,1.000049 222.333206,1.000049 332.999878,1.000025 
	C332.999908,40.666588 332.999908,80.333176 332.999939,119.999878 
	C293.500000,120.000000 254.000000,120.000000 214.000000,120.000000 
M108.895729,97.389618 
	C108.895729,71.417198 108.772018,45.443672 109.002747,19.473299 
	C109.047523,14.432372 107.602150,12.925020 102.522728,12.967568 
	C75.053764,13.197669 47.581848,13.072076 20.110962,13.089787 
	C18.712622,13.090690 17.314402,13.283182 14.657929,13.479413 
	C22.765711,21.528717 29.904030,28.926569 37.444687,35.888645 
	C39.391243,37.685848 42.574596,38.941208 45.235584,39.027077 
	C56.046211,39.375923 66.876747,39.295074 77.695389,39.108612 
	C81.589165,39.041496 82.989426,40.370262 82.919563,44.301914 
	C82.727318,55.120358 82.652557,65.950912 82.998161,76.761749 
	C83.083344,79.426300 84.318275,82.611526 86.108551,84.563072 
	C92.292709,91.304321 98.942795,97.619308 105.451736,104.059975 
	C106.295036,104.894432 107.350655,105.514336 108.895401,106.675041 
	C108.895401,103.313248 108.895401,100.827942 108.895729,97.389618 
M12.121403,18.659382 
	C12.119547,46.977993 12.239868,75.297623 12.004486,103.614296 
	C11.961540,108.780754 13.626663,110.066650 18.586916,110.027275 
	C45.904369,109.810410 73.224449,109.927948 100.543617,109.912453 
	C102.079430,109.911583 103.615135,109.747917 106.200043,109.599968 
	C97.501595,100.893074 89.702896,92.938904 81.675453,85.222710 
	C80.564766,84.155090 78.326630,83.905205 76.604042,83.887146 
	C65.610939,83.771912 54.613426,83.689857 43.623108,83.898781 
	C39.553421,83.976151 37.995987,82.722168 38.083515,78.497803 
	C38.311207,67.508232 38.230480,56.509869 38.089169,45.517380 
	C38.065258,43.657341 37.692390,41.270805 36.521061,40.043259 
	C29.278406,32.453003 21.776379,25.109247 14.284600,17.761003 
	C13.953001,17.435757 12.882844,17.863493 12.121403,18.659382 
M171.530228,81.949883 
	C178.853821,70.541687 178.784668,58.341026 174.750595,46.035736 
	C172.204773,38.270050 166.410706,32.684834 158.441833,31.335527 
	C148.254929,29.610659 137.812729,29.393419 127.252380,28.507303 
	C127.252380,50.578949 127.252380,71.252251 127.252380,92.143379 
	C134.724045,92.143379 141.864517,92.221115 149.002579,92.123444 
	C157.673737,92.004807 165.340546,89.437279 171.530228,81.949883 
M250.944107,45.775017 
	C242.381012,46.471889 236.128189,50.897240 234.234528,59.091309 
	C232.818390,65.219032 232.593628,72.040466 233.676773,78.231377 
	C235.390182,88.024773 243.058762,93.423294 253.015427,93.650269 
	C263.511627,93.889534 272.054413,87.105965 272.117798,78.286835 
	C270.063110,77.968742 267.990692,77.647911 266.036652,77.345398 
	C261.859955,85.525787 256.744263,88.318893 250.202423,86.660477 
	C245.385452,85.439323 239.697586,79.471710 240.997559,71.700508 
	C251.656418,71.700508 262.404602,71.700508 273.055786,71.700508 
	C275.055786,59.639168 269.095825,44.718231 250.944107,45.775017 
M193.024094,73.183975 
	C194.605331,72.745903 196.181915,71.949371 197.768570,71.928787 
	C207.045547,71.808449 216.324860,71.869759 225.864731,71.869759 
	C225.864731,68.762451 226.109512,66.274002 225.822479,63.848488 
	C224.560928,53.188065 217.801666,46.546112 207.720062,45.847691 
	C196.249619,45.053055 188.348389,50.195572 186.081619,61.217155 
	C184.976547,66.590187 185.035812,72.547943 186.087128,77.945122 
	C188.084671,88.199966 195.835663,93.732292 206.239578,93.646141 
	C216.259445,93.563156 224.284988,87.045395 224.714767,78.361336 
	C222.682480,78.014206 220.616714,77.661354 219.355270,77.445892 
	C216.705444,80.405426 214.898514,83.341461 212.303574,85.141594 
	C205.751724,89.686646 194.438873,86.539116 193.024094,73.183975 
M289.653748,49.190659 
	C287.566010,48.230698 285.478302,47.270733 282.889526,46.080391 
	C282.889526,62.328728 282.889526,77.072723 282.889526,91.870453 
	C285.397156,91.870453 287.649872,91.870453 290.237915,91.870453 
	C290.237915,83.982925 290.070923,76.359390 290.316071,68.749138 
	C290.421295,65.483269 290.960907,62.094795 292.052368,59.028728 
	C293.769257,54.205750 298.839111,51.477016 303.541504,52.179348 
	C308.594849,52.934101 310.705444,55.307522 311.381256,61.493923 
	C311.705109,64.458015 311.660858,67.468658 311.676788,70.458794 
	C311.714661,77.558006 311.688965,84.657562 311.688965,91.754257 
	C314.693268,91.754257 317.075958,91.754257 319.433289,91.754257 
	C319.433289,81.080475 320.058441,70.750130 319.268951,60.529049 
	C318.360687,48.770126 312.477539,44.345825 300.853119,45.919777 
	C297.661133,46.351971 294.768097,48.867512 291.677277,50.295959 
	C291.170685,50.530087 290.349152,50.082859 289.653748,49.190659 
z"/>
<path fill="#726556" opacity="1.000000" stroke="none" 
	d="
M108.895569,97.866119 
	C108.895401,100.827942 108.895401,103.313248 108.895401,106.675041 
	C107.350655,105.514336 106.295036,104.894432 105.451736,104.059975 
	C98.942795,97.619308 92.292709,91.304321 86.108551,84.563072 
	C84.318275,82.611526 83.083344,79.426300 82.998161,76.761749 
	C82.652557,65.950912 82.727318,55.120358 82.919563,44.301914 
	C82.989426,40.370262 81.589165,39.041496 77.695389,39.108612 
	C66.876747,39.295074 56.046211,39.375923 45.235584,39.027077 
	C42.574596,38.941208 39.391243,37.685848 37.444687,35.888645 
	C29.904030,28.926569 22.765711,21.528717 14.657929,13.479413 
	C17.314402,13.283182 18.712622,13.090690 20.110962,13.089787 
	C47.581848,13.072076 75.053764,13.197669 102.522728,12.967568 
	C107.602150,12.925020 109.047523,14.432372 109.002747,19.473299 
	C108.772018,45.443672 108.895729,71.417198 108.895569,97.866119 
z"/>
<path fill="#726556" opacity="1.000000" stroke="none" 
	d="
M12.139054,18.299936 
	C12.882844,17.863493 13.953001,17.435757 14.284600,17.761003 
	C21.776379,25.109247 29.278406,32.453003 36.521061,40.043259 
	C37.692390,41.270805 38.065258,43.657341 38.089169,45.517380 
	C38.230480,56.509869 38.311207,67.508232 38.083515,78.497803 
	C37.995987,82.722168 39.553421,83.976151 43.623108,83.898781 
	C54.613426,83.689857 65.610939,83.771912 76.604042,83.887146 
	C78.326630,83.905205 80.564766,84.155090 81.675453,85.222710 
	C89.702896,92.938904 97.501595,100.893074 106.200043,109.599968 
	C103.615135,109.747917 102.079430,109.911583 100.543617,109.912453 
	C73.224449,109.927948 45.904369,109.810410 18.586916,110.027275 
	C13.626663,110.066650 11.961540,108.780754 12.004486,103.614296 
	C12.239868,75.297623 12.119547,46.977993 12.139054,18.299936 
z"/>
<path fill="#FAFAFA" opacity="1.000000" stroke="none" 
	d="
M171.308594,82.236557 
	C165.340546,89.437279 157.673737,92.004807 149.002579,92.123444 
	C141.864517,92.221115 134.724045,92.143379 127.252380,92.143379 
	C127.252380,71.252251 127.252380,50.578949 127.252380,28.507303 
	C137.812729,29.393419 148.254929,29.610659 158.441833,31.335527 
	C166.410706,32.684834 172.204773,38.270050 174.750595,46.035736 
	C178.784668,58.341026 178.853821,70.541687 171.308594,82.236557 
M167.639114,51.235455 
	C164.177429,38.106136 154.183990,35.148972 135.499863,37.851807 
	C135.499863,53.420795 135.499863,68.963593 135.499863,84.915291 
	C140.322998,84.915291 144.785370,84.978996 149.245316,84.901962 
	C158.367828,84.744392 165.954529,79.221107 167.500473,70.299652 
	C168.527618,64.372215 167.782669,58.137699 167.639114,51.235455 
z"/>
<path fill="#F6F6F6" opacity="1.000000" stroke="none" 
	d="
M251.345917,45.754829 
	C269.095825,44.718231 275.055786,59.639168 273.055786,71.700508 
	C262.404602,71.700508 251.656418,71.700508 240.997559,71.700508 
	C239.697586,79.471710 245.385452,85.439323 250.202423,86.660477 
	C256.744263,88.318893 261.859955,85.525787 266.036652,77.345398 
	C267.990692,77.647911 270.063110,77.968742 272.117798,78.286835 
	C272.054413,87.105965 263.511627,93.889534 253.015427,93.650269 
	C243.058762,93.423294 235.390182,88.024773 233.676773,78.231377 
	C232.593628,72.040466 232.818390,65.219032 234.234528,59.091309 
	C236.128189,50.897240 242.381012,46.471889 251.345917,45.754829 
M263.539490,58.281616 
	C259.647827,52.535240 255.514648,50.949196 249.589615,52.928547 
	C244.080826,54.768837 241.066238,59.109867 241.374191,64.877991 
	C249.155869,64.877991 256.942993,64.877991 265.284363,64.877991 
	C264.779327,62.734055 264.338623,60.863174 263.539490,58.281616 
z"/>
<path fill="#F6F6F7" opacity="1.000000" stroke="none" 
	d="
M193.045990,73.612610 
	C194.438873,86.539116 205.751724,89.686646 212.303574,85.141594 
	C214.898514,83.341461 216.705444,80.405426 219.355270,77.445892 
	C220.616714,77.661354 222.682480,78.014206 224.714767,78.361336 
	C224.284988,87.045395 216.259445,93.563156 206.239578,93.646141 
	C195.835663,93.732292 188.084671,88.199966 186.087128,77.945122 
	C185.035812,72.547943 184.976547,66.590187 186.081619,61.217155 
	C188.348389,50.195572 196.249619,45.053055 207.720062,45.847691 
	C217.801666,46.546112 224.560928,53.188065 225.822479,63.848488 
	C226.109512,66.274002 225.864731,68.762451 225.864731,71.869759 
	C216.324860,71.869759 207.045547,71.808449 197.768570,71.928787 
	C196.181915,71.949371 194.605331,72.745903 193.045990,73.612610 
M196.302261,56.859379 
	C195.129990,59.317982 193.957733,61.776588 192.543045,64.743629 
	C201.471893,64.743629 209.464417,64.743629 217.785019,64.743629 
	C216.949814,59.457310 215.466309,55.013351 210.295380,53.040077 
	C205.118073,51.064369 200.585754,52.317471 196.302261,56.859379 
z"/>
<path fill="#F9F9F9" opacity="1.000000" stroke="none" 
	d="
M289.663452,49.570595 
	C290.349152,50.082859 291.170685,50.530087 291.677277,50.295959 
	C294.768097,48.867512 297.661133,46.351971 300.853119,45.919777 
	C312.477539,44.345825 318.360687,48.770126 319.268951,60.529049 
	C320.058441,70.750130 319.433289,81.080475 319.433289,91.754257 
	C317.075958,91.754257 314.693268,91.754257 311.688965,91.754257 
	C311.688965,84.657562 311.714661,77.558006 311.676788,70.458794 
	C311.660858,67.468658 311.705109,64.458015 311.381256,61.493923 
	C310.705444,55.307522 308.594849,52.934101 303.541504,52.179348 
	C298.839111,51.477016 293.769257,54.205750 292.052368,59.028728 
	C290.960907,62.094795 290.421295,65.483269 290.316071,68.749138 
	C290.070923,76.359390 290.237915,83.982925 290.237915,91.870453 
	C287.649872,91.870453 285.397156,91.870453 282.889526,91.870453 
	C282.889526,77.072723 282.889526,62.328728 282.889526,46.080391 
	C285.478302,47.270733 287.566010,48.230698 289.663452,49.570595 
z"/>
<path fill="#2F2C30" opacity="1.000000" stroke="none" 
	d="
M167.735016,51.638046 
	C167.782669,58.137699 168.527618,64.372215 167.500473,70.299652 
	C165.954529,79.221107 158.367828,84.744392 149.245316,84.901962 
	C144.785370,84.978996 140.322998,84.915291 135.499863,84.915291 
	C135.499863,68.963593 135.499863,53.420795 135.499863,37.851807 
	C154.183990,35.148972 164.177429,38.106136 167.735016,51.638046 
z"/>
<path fill="#312E32" opacity="1.000000" stroke="none" 
	d="
M263.718689,58.636955 
	C264.338623,60.863174 264.779327,62.734055 265.284363,64.877991 
	C256.942993,64.877991 249.155869,64.877991 241.374191,64.877991 
	C241.066238,59.109867 244.080826,54.768837 249.589615,52.928547 
	C255.514648,50.949196 259.647827,52.535240 263.718689,58.636955 
z"/>
<path fill="#333034" opacity="1.000000" stroke="none" 
	d="
M196.534225,56.570015 
	C200.585754,52.317471 205.118073,51.064369 210.295380,53.040077 
	C215.466309,55.013351 216.949814,59.457310 217.785019,64.743629 
	C209.464417,64.743629 201.471893,64.743629 192.543045,64.743629 
	C193.957733,61.776588 195.129990,59.317982 196.534225,56.570015 
z"/>
</svg>